<svg xmlns="http://www.w3.org/2000/svg" viewBox="0 0 38.64 38.64"><defs><style>.cls-1{fill:#ccc;}.cls-2{opacity:0.9;}.cls-3{fill:#010c14;}.cls-4{opacity:0.5;}.cls-5{fill:#fff;}.cls-6{fill:#b5b5b5;}</style></defs><title>Asset 2</title><g id="Layer_2" data-name="Layer 2"><g id="Home"><g id="style_1_copy_3" data-name="style 1 copy 3"><path class="cls-1" d="M19.32,0A19.32,19.32,0,1,0,38.64,19.32,19.32,19.32,0,0,0,19.32,0Z"/><g class="cls-2"><path class="cls-3" d="M19.32,36.5A17.18,17.18,0,1,1,36.5,19.32,17.2,17.2,0,0,1,19.32,36.5Z"/><path d="M19.32,2.64A16.68,16.68,0,1,1,2.64,19.32,16.7,16.7,0,0,1,19.32,2.64m0-1A17.68,17.68,0,1,0,37,19.32,17.69,17.69,0,0,0,19.32,1.64Z"/></g><g class="cls-4"><path class="cls-5" d="M19.32,36.29l0-.5v-.1a16.18,16.18,0,0,0,2.33-.16l.08.6A17.09,17.09,0,0,1,19.32,36.29Zm-2.45-.17a17.44,17.44,0,0,1-2.36-.52l.17-.58a16,16,0,0,0,2.28.5Zm7.2-.5L23.9,35a17.46,17.46,0,0,0,2.19-.81l.25.55A17.22,17.22,0,0,1,24.07,35.62Zm-11.83-.87a16.18,16.18,0,0,1-2.12-1.16l.33-.51a16.18,16.18,0,0,0,2,1.12Zm16.22-1.13-.32-.51A18.12,18.12,0,0,0,30,31.72l.39.45A15.3,15.3,0,0,1,28.46,33.62ZM8.19,32.13a16.24,16.24,0,0,1-1.71-1.71l.45-.4a16.16,16.16,0,0,0,1.65,1.66Zm23.93-1.67-.45-.39a16.86,16.86,0,0,0,1.4-1.87l.51.33A16.28,16.28,0,0,1,32.12,30.46ZM5,28.48a15.67,15.67,0,0,1-1.16-2.13l.55-.25a15.57,15.57,0,0,0,1.11,2Zm29.71-2.07-.55-.25A15.52,15.52,0,0,0,35,24l.58.17A16.68,16.68,0,0,1,34.74,26.41ZM3,24.08a19.08,19.08,0,0,1-.51-2.36l.6-.09a17.44,17.44,0,0,0,.49,2.28Zm33.09-2.3-.59-.09a16.28,16.28,0,0,0,.17-2.33h.6A16.09,16.09,0,0,1,36.11,21.78ZM3,19.36H2.34A19.25,19.25,0,0,1,2.52,17l.6.08A16.49,16.49,0,0,0,3,19.36ZM35.53,17a17.91,17.91,0,0,0-.48-2.29l.58-.16a17.38,17.38,0,0,1,.5,2.36ZM3.61,14.69,3,14.52a18.07,18.07,0,0,1,.85-2.26l.55.25A17.38,17.38,0,0,0,3.61,14.69Zm30.63-2.12a16.9,16.9,0,0,0-1.12-2.05l.51-.33a18.22,18.22,0,0,1,1.16,2.13ZM5.55,10.46,5,10.13A16.86,16.86,0,0,1,6.5,8.2L7,8.59A16.86,16.86,0,0,0,5.55,10.46ZM31.73,8.64A17.23,17.23,0,0,0,30.08,7l.4-.45a16.23,16.23,0,0,1,1.7,1.72ZM8.6,6.94l-.39-.45A16.77,16.77,0,0,1,10.14,5l.33.5A16.86,16.86,0,0,0,8.6,6.94ZM28.22,5.58a15.7,15.7,0,0,0-2-1.13l.25-.55a17.52,17.52,0,0,1,2.12,1.17ZM12.52,4.42l-.25-.55A16.71,16.71,0,0,1,14.54,3l.17.58A16.9,16.9,0,0,0,12.52,4.42ZM24,3.63a16,16,0,0,0-2.28-.51l.09-.59a15.77,15.77,0,0,1,2.36.52Zm-7-1L16.91,2a16,16,0,0,1,2.41-.17l.07.6h-.07A18,18,0,0,0,17,2.62Z"/></g></g><g id="style_1_copy_2" data-name="style 1 copy 2"><path class="cls-6" d="M27.09,9.7H12.62a2.45,2.45,0,0,0-2.44,2.44V26.59A2.44,2.44,0,0,0,12.62,29H27.06a2.43,2.43,0,0,0,2.44-2.43V12.12A2.38,2.38,0,0,0,27.09,9.7Zm-7.76,5.79a3.8,3.8,0,1,1-3.91,3.79A3.86,3.86,0,0,1,19.33,15.49Zm7.3,11.12A3.77,3.77,0,0,1,26,25.4H12.62c-.43,1.23-.61,1.05,0,.62V17.49l.92.33a5.77,5.77,0,0,0-.25,1.67,6.06,6.06,0,0,0,12.12,0,5.77,5.77,0,0,0-.25-1.67l1.95-.33v9.12Zm-.15-10.87h-2.4a.61.61,0,0,1-.61-.61v-2.4a.61.61,0,0,1,.61-.61h2.4a.61.61,0,0,1,.61.61v2.4A.61.61,0,0,1,26.48,15.74Z"/></g></g></g></svg>