<svg xmlns="http://www.w3.org/2000/svg" viewBox="0 0 38.64 38.64"><defs><style>.cls-1{fill:#ccc;}.cls-2{opacity:0.9;}.cls-3{fill:#010c14;}.cls-4{opacity:0.5;}.cls-5{fill:#fff;}.cls-6{fill:#b5b5b5;}</style></defs><title>Asset 4</title><g id="Layer_2" data-name="Layer 2"><g id="Home"><g id="style_1_copy_3" data-name="style 1 copy 3"><path class="cls-1" d="M19.32,0A19.32,19.32,0,1,0,38.64,19.32,19.32,19.32,0,0,0,19.32,0Z"/><g class="cls-2"><circle class="cls-3" cx="19.32" cy="19.32" r="17.18"/><path d="M19.32,2.64A16.68,16.68,0,1,1,2.64,19.32,16.7,16.7,0,0,1,19.32,2.64m0-1A17.68,17.68,0,1,0,37,19.32,17.69,17.69,0,0,0,19.32,1.64Z"/></g><g class="cls-4"><path class="cls-5" d="M19.32,36.15l0-.6h0a15.83,15.83,0,0,0,2.29-.16l.09.6A17.09,17.09,0,0,1,19.32,36.15Zm-2.45,0a17.12,17.12,0,0,1-2.36-.52l.17-.58a16,16,0,0,0,2.28.5Zm7.2-.5L23.9,35a17.46,17.46,0,0,0,2.19-.81l.25.55A18.76,18.76,0,0,1,24.07,35.62Zm-11.83-.87a16.25,16.25,0,0,1-2.12-1.17l.33-.5a16.18,16.18,0,0,0,2,1.12Zm16.22-1.13-.32-.51A16.77,16.77,0,0,0,30,31.72l.39.46A17.09,17.09,0,0,1,28.46,33.62ZM8.18,32.13a17.14,17.14,0,0,1-1.7-1.71l.45-.4a17.23,17.23,0,0,0,1.65,1.66Zm23.94-1.67-.45-.39a16.86,16.86,0,0,0,1.4-1.87l.51.33A16.28,16.28,0,0,1,32.12,30.46ZM5,28.48a15.67,15.67,0,0,1-1.16-2.13l.55-.25a15.57,15.57,0,0,0,1.11,2Zm29.71-2.07-.54-.25A16.81,16.81,0,0,0,35,24l.58.17A16.68,16.68,0,0,1,34.74,26.41ZM3,24.08a17.41,17.41,0,0,1-.51-2.36l.6-.09a15.94,15.94,0,0,0,.49,2.28Zm33.09-1.81-.59-.09a16.28,16.28,0,0,0,.17-2.33h.6A16.09,16.09,0,0,1,36.11,22.27ZM3,19.85H2.34a17.65,17.65,0,0,1,.18-2.41l.6.08A16.49,16.49,0,0,0,3,19.85ZM35.53,17A15.94,15.94,0,0,0,35,14.76l.58-.17A15.74,15.74,0,0,1,36.13,17ZM3.61,14.69,3,14.52a18.07,18.07,0,0,1,.85-2.26l.55.25A16.81,16.81,0,0,0,3.61,14.69Zm30.63-2.13a18.55,18.55,0,0,0-1.12-2.05l.51-.32a18.09,18.09,0,0,1,1.16,2.12ZM5.55,10.46,5,10.13A19.44,19.44,0,0,1,6.49,8.2L7,8.59A16.86,16.86,0,0,0,5.55,10.46ZM31.73,8.64A16.16,16.16,0,0,0,30.08,7l.4-.45a16.14,16.14,0,0,1,1.7,1.71ZM8.6,6.94l-.39-.45A16,16,0,0,1,10.14,5l.33.5A18.21,18.21,0,0,0,8.6,6.94ZM28.22,5.58a15.7,15.7,0,0,0-2-1.13l.25-.55a17.52,17.52,0,0,1,2.12,1.17ZM12.52,4.42l-.25-.55A16.23,16.23,0,0,1,14.54,3l.17.58A16.9,16.9,0,0,0,12.52,4.42ZM24,3.62a16,16,0,0,0-2.28-.5l.09-.6a17.14,17.14,0,0,1,2.36.53Zm-7-.51-.08-.59a16.09,16.09,0,0,1,2.41-.17l.07.6h-.07A18.12,18.12,0,0,0,17,3.11Z"/></g></g><g id="style_1_copy_2" data-name="style 1 copy 2"><path class="cls-6" d="M16.82,30.72h3.62V19.85h2.9l.38-3.62H20.44V14.06c0-.94.1-1.45,1.61-1.45h2V9h-2c-3.87,0-5.23,1.85-5.23,4.95v2.29H14.4v3.62h2.42Z"/></g></g></g></svg>