<svg xmlns="http://www.w3.org/2000/svg" viewBox="0 0 38.64 38.64"><defs><style>.cls-1{fill:#ccc;}.cls-2{opacity:0.9;}.cls-3{fill:#010c14;}.cls-4{opacity:0.5;}.cls-5{fill:#fff;}.cls-6{fill:#b5b5b5;}</style></defs><title>Asset 1</title><g id="Layer_2" data-name="Layer 2"><g id="Home"><g id="style_1_copy_3" data-name="style 1 copy 3"><path class="cls-1" d="M19.32,0A19.32,19.32,0,1,0,38.64,19.32,19.32,19.32,0,0,0,19.32,0Z"/><g class="cls-2"><path class="cls-3" d="M19.32,36.5A17.18,17.18,0,1,1,36.5,19.32,17.2,17.2,0,0,1,19.32,36.5Z"/><path d="M19.32,2.64A16.68,16.68,0,1,1,2.64,19.32,16.7,16.7,0,0,1,19.32,2.64m0-1A17.68,17.68,0,1,0,37,19.32,17.69,17.69,0,0,0,19.32,1.64Z"/></g><g class="cls-4"><path class="cls-5" d="M19.32,36.83l0-.61h0a15.83,15.83,0,0,0,2.29-.16l.09.6A17.1,17.1,0,0,1,19.32,36.83Zm-2.45-.71a17.58,17.58,0,0,1-2.37-.52l.18-.58a16,16,0,0,0,2.28.5Zm7.19-.5L23.9,35a17.46,17.46,0,0,0,2.19-.81l.25.55A16.84,16.84,0,0,1,24.06,35.62Zm-11.82-.87a16.25,16.25,0,0,1-2.12-1.17l.32-.5a17,17,0,0,0,2.05,1.12Zm16.22-1.13-.32-.51A16.77,16.77,0,0,0,30,31.72l.39.46A17.09,17.09,0,0,1,28.46,33.62ZM8.19,32.13a17.25,17.25,0,0,1-1.71-1.71l.45-.4a16.06,16.06,0,0,0,1.65,1.65Zm23.93-1.66-.45-.4a15.87,15.87,0,0,0,1.4-1.86l.51.32A17.26,17.26,0,0,1,32.12,30.47ZM5,28.48a16.79,16.79,0,0,1-1.15-2.13l.54-.25a16.9,16.9,0,0,0,1.12,2Zm29.72-2.07-.54-.25A16.81,16.81,0,0,0,35,24l.58.17A16.68,16.68,0,0,1,34.74,26.41ZM3,24.08a17.75,17.75,0,0,1-.51-2.36l.6-.09a16.24,16.24,0,0,0,.49,2.28Zm33.1-2.34-.6-.09a16.28,16.28,0,0,0,.17-2.33h.61A19.27,19.27,0,0,1,36.12,21.74ZM3,19.32H2.34a19.41,19.41,0,0,1,.18-2.42l.6.09A16.39,16.39,0,0,0,3,19.32ZM35.53,17a17.41,17.41,0,0,0-.48-2.28l.58-.17a17.2,17.2,0,0,1,.5,2.37ZM3.61,14.69,3,14.52a17.27,17.27,0,0,1,.85-2.27l.55.25A17.52,17.52,0,0,0,3.61,14.69Zm30.63-2.12a15.63,15.63,0,0,0-1.12-2.05l.51-.33a15.67,15.67,0,0,1,1.16,2.13ZM5.55,10.46,5,10.13A18.1,18.1,0,0,1,6.5,8.2L7,8.59A16.86,16.86,0,0,0,5.55,10.46ZM31.73,8.64A17.23,17.23,0,0,0,30.08,7l.4-.45a16.33,16.33,0,0,1,1.71,1.72ZM8.6,6.94l-.39-.45A16.77,16.77,0,0,1,10.14,5l.33.5A16.86,16.86,0,0,0,8.6,6.94ZM28.22,5.58a15.07,15.07,0,0,0-2-1.13l.25-.55a17.52,17.52,0,0,1,2.12,1.17ZM12.52,4.42l-.25-.55A16.23,16.23,0,0,1,14.54,3l.17.58A15.55,15.55,0,0,0,12.52,4.42ZM24,3.62a16,16,0,0,0-2.28-.5l.09-.6a17.62,17.62,0,0,1,2.37.53Zm-7-1L16.91,2a17.53,17.53,0,0,1,2.41-.17l.07.6h-.07A16.39,16.39,0,0,0,17,2.58Z"/></g></g><g id="style_1_copy_2" data-name="style 1 copy 2"><path class="cls-6" d="M29.51,27.77V20.36c0-4-2.32-5.82-5.42-5.82a4.75,4.75,0,0,0-4.24,2.14V14.49H15.26c.06,1.25,0,13.28,0,13.28h4.59V20.35A2.92,2.92,0,0,1,20,19.28a2.5,2.5,0,0,1,2.35-1.62c1.66,0,2.33,1.22,2.33,3v7.1ZM11.7,13.28a2.24,2.24,0,1,0,0-4.46,2.24,2.24,0,1,0-.06,4.46Zm2.11,14.49V14.49H9V27.77Z"/></g></g></g></svg>