<svg xmlns="http://www.w3.org/2000/svg" viewBox="0 0 38.55 38.55"><defs><style>.cls-1{fill:#ccc;}.cls-2{opacity:0.9;}.cls-3{fill:#010c14;}.cls-4{opacity:0.5;}.cls-5{fill:#fff;}.cls-6{fill:#b5b5b5;}</style></defs><title>Asset 3</title><g id="Layer_2" data-name="Layer 2"><g id="Home"><g id="style_1_copy_3" data-name="style 1 copy 3"><path class="cls-1" d="M19.27,0A19.28,19.28,0,1,0,38.55,19.27,19.27,19.27,0,0,0,19.27,0Z"/><g class="cls-2"><path class="cls-3" d="M19.27,36.41A17.14,17.14,0,1,1,36.41,19.27,17.15,17.15,0,0,1,19.27,36.41Z"/><path d="M19.27,2.64A16.64,16.64,0,1,1,2.64,19.27,16.65,16.65,0,0,1,19.27,2.64m0-1A17.64,17.64,0,1,0,36.91,19.27,17.63,17.63,0,0,0,19.27,1.64Z"/></g><g class="cls-4"><path class="cls-5" d="M19.27,35.64l0-.61h0a15.83,15.83,0,0,0,2.29-.16l.09.6A17.1,17.1,0,0,1,19.27,35.64ZM16.83,36a16,16,0,0,1-2.36-.52l.17-.57a17.83,17.83,0,0,0,2.28.5Zm7.18-.5L23.84,35A16.76,16.76,0,0,0,26,34.15l.25.54A15.35,15.35,0,0,1,24,35.53Zm-11.8-.86a17.52,17.52,0,0,1-2.12-1.17l.33-.5a16.18,16.18,0,0,0,2,1.12ZM28.4,33.54,28.07,33a15.62,15.62,0,0,0,1.87-1.39l.39.46A17.91,17.91,0,0,1,28.4,33.54ZM8.16,32.06a17.25,17.25,0,0,1-1.7-1.72L6.92,30A16,16,0,0,0,8.56,31.6ZM32,30.39,31.59,30A16.75,16.75,0,0,0,33,28.14l.51.32A16.28,16.28,0,0,1,32,30.39Zm-27-2a17.37,17.37,0,0,1-1.15-2.12L4.4,26a17.55,17.55,0,0,0,1.12,2Zm29.65-2.06-.55-.25a16,16,0,0,0,.82-2.18l.58.17A16.63,16.63,0,0,1,34.66,26.35ZM3,24a16.14,16.14,0,0,1-.51-2.37l.59-.08a17.8,17.8,0,0,0,.49,2.28Zm33-2.25-.6-.08a16.28,16.28,0,0,0,.17-2.33h.61A19,19,0,0,1,36,21.78ZM2.94,19.37h-.6A17.75,17.75,0,0,1,2.51,17l.6.09A16.25,16.25,0,0,0,2.94,19.37ZM35.45,17A15.94,15.94,0,0,0,35,14.72l.58-.17a17.2,17.2,0,0,1,.5,2.37ZM3.6,14.66,3,14.49a16.23,16.23,0,0,1,.84-2.27l.55.26A16.28,16.28,0,0,0,3.6,14.66Zm30.55-2.12a15.57,15.57,0,0,0-1.11-2l.51-.32a16,16,0,0,1,1.15,2.12ZM5.54,10.43,5,10.11A17.36,17.36,0,0,1,6.48,8.18l.46.39A16.75,16.75,0,0,0,5.54,10.43ZM31.65,8.62A15,15,0,0,0,30,7l.4-.46a17.25,17.25,0,0,1,1.7,1.72ZM8.58,6.93l-.39-.46A17.36,17.36,0,0,1,10.12,5l.33.51A16,16,0,0,0,8.58,6.93ZM28.15,5.56a16.18,16.18,0,0,0-2-1.12l.26-.55a18.18,18.18,0,0,1,2.11,1.17ZM12.49,4.41l-.25-.55A17.59,17.59,0,0,1,14.51,3l.16.58A16.76,16.76,0,0,0,12.49,4.41Zm11.45-.79a17.87,17.87,0,0,0-2.28-.51l.09-.59A17.44,17.44,0,0,1,24.11,3Zm-7-1-.09-.59a16.09,16.09,0,0,1,2.41-.17l.07.6h-.08A17.81,17.81,0,0,0,17,2.67Z"/></g></g><g id="style_1_copy_2" data-name="style 1 copy 2"><g id="Cat"><path class="cls-6" d="M23.4,31.42H16s0-1.81,0-3.08c-4.29.92-5.48-2.35-5.48-2.35A9.78,9.78,0,0,0,8.9,23.64c-1.57-.93,0-.79,0-.79a2.89,2.89,0,0,1,2.35,1.57A3.72,3.72,0,0,0,16,26a3.84,3.84,0,0,1,.78-2.35c-3.42-.39-6.27-2.35-6.27-6.27s.79-4.7,1.57-5.48a4.9,4.9,0,0,1,0-3.92s1.54,0,3.1,2.35c.78-.78,3.14-.78,3.92-.78s3.14,0,3.92.78C24.57,8,26.11,8,26.11,8a4.84,4.84,0,0,1,0,3.92c.79.78,1.57,1.56,1.57,5.48s-2.85,5.88-6.27,6.27A4.15,4.15,0,0,1,22.2,26l1.2,5.48Z"/></g></g></g></g></svg>